PathFileType	4	(X/Y/Z)	./resultDataOpenSim/trcMotMarkerGrf/sub10/qtm-15-01.trc
DataRate	CameraRate	NumFrames	NumMarkers	Units	OrigDataRate	OrigDataStartFrame	OrigNumFrames
250.000000	250.000000	14	24	m	250.000000	57	452
Frame#	Time	L.Toe.Tip			R.Toe.Tip			L.Ankle.Lat			R.Ankle.Lat			L.Ankle.Med			R.Ankle.Med			L.Heel			R.Heel			L.Knee.Lat			R.Knee.Lat			L.Knee.Med			R.Knee.Med			L.Thigh.Upper			R.Thigh.Upper			L.ASIS			R.ASIS			V.Sacral			L.Acromium			R.Acromium			C7			L.Elbow			R.Elbow			L.Wrist.Lat			R.Wrist.Lat
		X1	Y1	Z1	X2	Y2	Z2	X3	Y3	Z3	X4	Y4	Z4	X5	Y5	Z5	X6	Y6	Z6	X7	Y7	Z7	X8	Y8	Z8	X9	Y9	Z9	X10	Y10	Z10	X11	Y11	Z11	X12	Y12	Z12	X13	Y13	Z13	X14	Y14	Z14	X15	Y15	Z15	X16	Y16	Z16	X17	Y17	Z17	X18	Y18	Z18	X19	Y19	Z19	X20	Y20	Z20	X21	Y21	Z21	X22	Y22	Z22	X23	Y23	Z23	X24	Y24	Z24

57	0.224	-1.4643978	0.077428946	-0.18444305	-0.80973011	0.039305281	0.057811175	-1.4656887	0.21578779	-0.20354256	-0.94708065	0.053411907	0.10157421	-1.4352405	0.20565166	-0.12628221	-0.93579931	0.080039963	0.016411796	-1.5097533	0.25869264	-0.15020144	-1.0020343	0.029467092	0.054431418	-1.156069	0.42789282	-0.22041256	-0.93668763	0.45568673	0.1224177	-1.1339875	0.38177567	-0.11082643	-0.93641958	0.458032	-0.0043767303	-1.0862691	0.80101801	-0.2219886	-1.037729	0.86117617	0.16322574	-1.0088567	0.90801273	-0.16161872	-0.98053168	0.94090083	0.076223848	-1.191795	0.94532975	-0.019559086	-1.004757	1.3918585	-0.18335729	-1.0536617	1.4014673	0.13403045	-1.1119571	1.4285052	-0.036423777	-1.0924946	1.0546612	-0.2631201	-1.21974	1.1068441	0.18475524	-0.87625837	0.92554403	-0.23684539	-1.2024086	0.88357038	0.27796751
58	0.228	-1.4518167	0.079895661	-0.18474797	-0.80956557	0.039203066	0.057716511	-1.4544746	0.21803761	-0.20331701	-0.94796912	0.053339907	0.10149709	-1.4250452	0.20798668	-0.1259545	-0.93549364	0.080075424	0.016369003	-1.4993746	0.26076432	-0.15107413	-1.0020294	0.029505732	0.054426946	-1.1441846	0.42780701	-0.22009325	-0.93441716	0.45579735	0.12275786	-1.1220392	0.38283426	-0.10992824	-0.9341029	0.45846083	-0.003759777	-1.0788557	0.80163639	-0.22140688	-1.0325164	0.8620765	0.1637112	-1.0025987	0.90879834	-0.16113497	-0.97407025	0.94167389	0.077011725	-1.1860319	0.94619332	-0.019418975	-0.99880357	1.3928766	-0.18291565	-1.0468063	1.4022359	0.13477856	-1.1057129	1.4298866	-0.03534298	-1.088016	1.0561834	-0.26248083	-1.2121205	1.1072175	0.18616583	-0.87276423	0.92492379	-0.23717405	-1.1938641	0.88377806	0.27911155
59	0.232	-1.4388427	0.082092652	-0.18508893	-0.80938816	0.039110274	0.057604208	-1.4431537	0.22010695	-0.20316058	-0.94875767	0.053302298	0.10139615	-1.4142129	0.2102974	-0.12561909	-0.93514075	0.080094071	0.016287973	-1.4888085	0.26255485	-0.15193062	-1.0020183	0.029557891	0.054394371	-1.1321096	0.42787579	-0.21978535	-0.93234308	0.45583346	0.12309668	-1.1103026	0.3839465	-0.10897607	-0.9317632	0.45890892	-0.0032811034	-1.071564	0.80236986	-0.22089343	-1.0273837	0.86292051	0.16411187	-0.99652083	0.90964836	-0.16078181	-0.96805224	0.94245295	0.077682425	-1.1803139	0.94710303	-0.019383899	-0.99285787	1.3939361	-0.18248163	-1.0400182	1.4030582	0.13550209	-1.0995138	1.4313547	-0.034246056	-1.0835633	1.057748	-0.26185592	-1.2044593	1.1075943	0.18757194	-0.86936665	0.92429782	-0.23750163	-1.185218	0.883992	0.28021776
60	0.236	-1.4256252	0.083995876	-0.185473	-0.80921641	0.039025318	0.057484543	-1.4317026	0.22203046	-0.20303162	-0.94917231	0.05331678	0.10131686	-1.4028466	0.21253593	-0.12527899	-0.93472297	0.080121784	0.016183801	-1.4779939	0.26403397	-0.15235288	-1.0020095	0.029621634	0.054353864	-1.1194995	0.42811388	-0.21958652	-0.93044982	0.45578769	0.12342955	-1.0989022	0.38507006	-0.10795706	-0.92927081	0.45933183	-0.0029745075	-1.0643989	0.80320002	-0.22044161	-1.0223391	0.86371476	0.16443548	-0.99049551	0.91061243	-0.16050047	-0.96244471	0.94324223	0.078266048	-1.1746217	0.94802705	-0.019452061	-0.98693582	1.3950394	-0.18204148	-1.033303	1.4039307	0.13621109	-1.0933908	1.4328653	-0.033172407	-1.0791283	1.0593446	-0.26123231	-1.1967635	1.107969	0.1889605	-0.86605772	0.92367682	-0.23782504	-1.1766671	0.88421946	0.2812214
61	0.24	-1.4121566	0.085631038	-0.18585466	-0.80906788	0.038945713	0.057373709	-1.4200679	0.22380013	-0.20284925	-0.94926842	0.05337065	0.10125926	-1.3912201	0.21461357	-0.12491015	-0.93430311	0.080159591	0.016071188	-1.4670236	0.26518193	-0.1523539	-1.00201	0.029694296	0.054321167	-1.1060573	0.42852389	-0.21961889	-0.92872198	0.45566265	0.12374956	-1.087788	0.38619726	-0.10688516	-0.92668502	0.45971007	-0.0027806143	-1.0573543	0.8041442	-0.2200209	-1.0173959	0.8644669	0.16469364	-0.9844411	0.91171943	-0.16023768	-0.95705362	0.94405387	0.078840891	-1.1689371	0.94895041	-0.019599933	-0.98104364	1.3961709	-0.18159477	-1.0266471	1.4048411	0.13690075	-1.0873038	1.4343499	-0.032159168	-1.0747118	1.0609658	-0.26060878	-1.1890376	1.1083335	0.19032	-0.8628198	0.92306212	-0.23813507	-1.1682326	0.88447474	0.28212657
62	0.244	-1.3983642	0.087046988	-0.18617199	-0.80895277	0.038872722	0.057283423	-1.4082016	0.22536692	-0.20258547	-0.94924231	0.053441401	0.10120558	-1.3794838	0.21644636	-0.12450785	-0.93396452	0.080190666	0.015960379	-1.4559632	0.26600218	-0.15213962	-1.0020218	0.029773588	0.054296742	-1.0919905	0.42911396	-0.21984848	-0.9271539	0.45546862	0.12406765	-1.0767286	0.38734365	-0.10582799	-0.92423657	0.46004057	-0.0025663095	-1.0504188	0.805233	-0.21958799	-1.0125207	0.86517967	0.1648969	-0.97835466	0.91297115	-0.15996856	-0.95172186	0.94489256	0.079468465	-1.1632529	0.94988518	-0.01978935	-0.97517642	1.397319	-0.18114194	-1.02005	1.4057784	0.13756059	-1.0812058	1.4357474	-0.031234751	-1.070318	1.0626134	-0.25999563	-1.1812899	1.1086884	0.19164915	-0.85964989	0.9224474	-0.23842124	-1.1598387	0.88477472	0.28296313
63	0.248	-1.3842303	0.08828079	-0.18638643	-0.808875	0.038812057	0.057214651	-1.3960981	0.22665716	-0.20227317	-0.94922668	0.053515713	0.10114824	-1.3675278	0.21800069	-0.12412188	-0.93373207	0.080206593	0.015855628	-1.4448	0.26650866	-0.15184379	-1.002043	0.029855064	0.054265569	-1.0779844	0.42988157	-0.22001974	-0.92575918	0.45521956	0.12439425	-1.0655095	0.38852485	-0.10484163	-0.92213278	0.46030992	-0.0022405525	-1.0435676	0.80648986	-0.21910304	-1.0076163	0.86586463	0.16506865	-0.97227359	0.91434702	-0.15969868	-0.94640518	0.94575517	0.080159823	-1.1575727	0.95084916	-0.019991637	-0.96933226	1.3984844	-0.18068197	-1.0135144	1.4067462	0.13817805	-1.0751009	1.4370385	-0.030409109	-1.0659541	1.0642926	-0.25940554	-1.1735387	1.1090437	0.19295271	-0.8565723	0.92183279	-0.2386829	-1.1514103	0.88511978	0.28375573
64	0.252	-1.3698252	0.089342661	-0.18649423	-0.8088347	0.038769999	0.05716295	-1.3837867	0.22760256	-0.20195669	-0.94925117	0.05359244	0.10108286	-1.3549865	0.21930754	-0.12385997	-0.93358675	0.080214412	0.015756517	-1.4334847	0.26671707	-0.15150488	-1.0020668	0.029932016	0.054200118	-1.0645884	0.43079591	-0.21990631	-0.92453349	0.45493801	0.1247186	-1.0540576	0.38975536	-0.10392714	-0.92039974	0.46049082	-0.0018244484	-1.0367717	0.80792	-0.2185516	-1.0025521	0.86655354	0.16526349	-0.96623682	0.91581978	-0.15944944	-0.94102706	0.94665544	0.080920479	-1.1519033	0.95184974	-0.020201383	-0.96352112	1.3996719	-0.18021844	-1.0070093	1.4077586	0.13874327	-1.0690317	1.4382557	-0.029659472	-1.0616246	1.0660052	-0.25883858	-1.1658092	1.1094093	0.1942318	-0.85363328	0.92123054	-0.23893193	-1.1428841	0.88549518	0.28453658
65	0.256	-1.3552403	0.090219412	-0.18650941	-0.8088276	0.038749544	0.057128417	-1.371319	0.22817304	-0.20164656	-0.94927509	0.053675587	0.10100006	-1.3415551	0.22041166	-0.12380619	-0.93350886	0.080226174	0.015662895	-1.421954	0.26664079	-0.15115244	-1.0020825	0.029997777	0.054078791	-1.0518597	0.43180987	-0.21951151	-0.92341509	0.45465901	0.12501938	-1.0423245	0.39106262	-0.10307609	-0.91895223	0.46056291	-0.0013834519	-1.0300509	0.80948525	-0.21797773	-0.99723283	0.86727747	0.16553889	-0.96026149	0.91737282	-0.15923648	-0.93539688	0.94763072	0.08178791	-1.1462447	0.95288791	-0.020423118	-0.95775358	1.400887	-0.17975442	-1.0004676	1.4088285	0.13925791	-1.0630337	1.4394521	-0.028942484	-1.0573248	1.067751	-0.25828404	-1.158114	1.1097865	0.19548408	-0.85086655	0.92065289	-0.23918125	-1.1342032	0.88588612	0.2853485
66	0.26	-1.3405288	0.09088578	-0.18644021	-0.80884392	0.038748877	0.057118313	-1.3587381	0.22839509	-0.20132508	-0.94921919	0.053764958	0.10089453	-1.3275634	0.22128526	-0.12386444	-0.93348536	0.080249195	0.015579073	-1.4101539	0.26627741	-0.1508655	-1.0020848	0.030045364	0.053937527	-1.0396119	0.43288333	-0.2189603	-0.92232222	0.45442079	0.12529008	-1.0302214	0.39247992	-0.10229105	-0.91770861	0.46052346	-0.00096045379	-1.0234898	0.81110144	-0.21748364	-0.99168074	0.86804304	0.16589356	-0.95433569	0.91900118	-0.1590576	-0.92935027	0.9487121	0.082799338	-1.1405862	0.95396498	-0.020654088	-0.95202843	1.4021348	-0.17928582	-0.99385937	1.4099628	0.13974281	-1.0571089	1.4406473	-0.028241054	-1.053046	1.0695267	-0.25773505	-1.1504345	1.1101662	0.19671705	-0.84826424	0.92010124	-0.23943173	-1.1252998	0.88628502	0.28622942
67	0.264	-1.3256917	0.091326008	-0.18628076	-0.80887275	0.038762257	0.057141683	-1.3460146	0.2283318	-0.20099067	-0.94899807	0.053848256	0.1007684	-1.3139883	0.22181804	-0.12375013	-0.9335051	0.080284322	0.015511595	-1.3980457	0.26559998	-0.15076762	-1.0020873	0.030058574	0.053919439	-1.0277066	0.43399714	-0.21834056	-0.92121119	0.45424819	0.12554724	-1.0178053	0.39401018	-0.10154296	-0.91651331	0.46039056	-0.00061152782	-1.017141	0.81269639	-0.21714742	-0.98605542	0.8688405	0.16626346	-0.94843893	0.92069742	-0.15889702	-0.92308123	0.94986919	0.083903338	-1.1349181	0.95507669	-0.020889888	-0.94634147	1.4034131	-0.17880559	-0.98725183	1.4111514	0.14023249	-1.051233	1.4418193	-0.027578757	-1.0487851	1.0713284	-0.25719204	-1.1427369	1.1105387	0.19796228	-0.84578945	0.91956793	-0.23967166	-1.1160871	0.88669458	0.2871946
68	0.268	-1.3106998	0.091546152	-0.18602348	-0.80891044	0.038783702	0.057205251	-1.3330639	0.22803568	-0.20066197	-0.94858416	0.053900394	0.10062386	-1.3014832	0.22193618	-0.12326286	-0.93356313	0.080330537	0.015463426	-1.3856126	0.26457416	-0.15094678	-1.0021169	0.030007194	0.054222968	-1.0160508	0.43515928	-0.21767753	-0.92008297	0.45414671	0.12581466	-1.0053905	0.39560879	-0.10076738	-0.91508245	0.46020275	-0.00042496418	-1.0109344	0.81426021	-0.216944	-0.98054839	0.86965823	0.1665917	-0.94257043	0.92244265	-0.15873831	-0.91726423	0.9509922	0.084923911	-1.1292404	0.95620909	-0.021131763	-0.94069831	1.4047106	-0.17831233	-0.98076569	1.4123598	0.14075444	-1.04538	1.4429536	-0.026982394	-1.0445466	1.0731587	-0.25665696	-1.1350283	1.1109086	0.19927299	-0.84341095	0.9190435	-0.23988807	-1.1065444	0.88712479	0.28821619
69	0.272	-1.295523	0.091567742	-0.1856699	-0.80896291	0.038811513	0.057312361	-1.3198768	0.22751938	-0.20033474	-0.94806175	0.0539065	0.10046348	-1.2897244	0.22169502	-0.12249133	-0.93366166	0.080388839	0.015432108	-1.3729463	0.26319738	-0.1512834	-1.002183	0.029882124	0.054893092	-1.0045111	0.43639741	-0.21696353	-0.91896574	0.45411038	0.12610469	-0.99329025	0.39722448	-0.099918964	-0.91329115	0.45999254	-0.00041937132	-1.0047324	0.81582624	-0.21677358	-0.97533247	0.87045906	0.16685538	-0.9367463	0.92421554	-0.15856983	-0.91244233	0.95199047	0.085710426	-1.1235578	0.95734959	-0.021374467	-0.93510811	1.406017	-0.17781261	-0.97446658	1.4135582	0.14130734	-1.0395619	1.4440745	-0.026456878	-1.0403359	1.0750231	-0.25613378	-1.1273948	1.111296	0.20069002	-0.84112587	0.91852227	-0.24007882	-1.0968139	0.88757827	0.28922656
70	0.276	-1.280138	0.091415078	-0.18522439	-0.80903761	0.038848943	0.05746003	-1.3065527	0.22676227	-0.19997449	-0.94759136	0.053894683	0.10029833	-1.277982	0.22121606	-0.12166316	-0.93380164	0.080460727	0.01541366	-1.3602889	0.26151554	-0.15141416	-1.0022584	0.029740966	0.055669252	-0.99297169	0.43773071	-0.21618195	-0.9178907	0.454132	0.12641592	-0.98154941	0.39884401	-0.098993909	-0.9114065	0.45976136	-0.00047762006	-0.99844579	0.8174279	-0.21654169	-0.97070465	0.87114809	0.16700584	-0.93097114	0.9260077	-0.15837753	-0.90830816	0.95290833	0.08632305	-1.1178731	0.958497	-0.021598462	-0.92956983	1.40733	-0.17731288	-0.96831221	1.4147473	0.14186185	-1.0338163	1.4452215	-0.025984729	-1.0361533	1.076915	-0.25562956	-1.1199759	1.1117197	0.20217351	-0.83895972	0.91800196	-0.24025512	-1.0871223	0.88804482	0.29016867
